<?xml version="1.0" encoding="utf-8"?>
<!-- Generator: Adobe Illustrator 21.0.0, SVG Export Plug-In . SVG Version: 6.00 Build 0)  -->
<svg version="1.1" id="Layer_1" xmlns="http://www.w3.org/2000/svg" xmlns:xlink="http://www.w3.org/1999/xlink" x="0px" y="0px"
	 viewBox="0 0 750 325" enable-background="new 0 0 750 325" xml:space="preserve">
<path fill="#FFFFFF" d="M38.2,201.7c-1.3,2.1-3.2,3.7-5.5,4.8c-2.4,1.1-5.1,1.7-8.3,1.7c-3.4,0-6.3-0.8-8.8-2.3
	c-2.5-1.5-4.4-3.7-5.7-6.6s-2-6.2-2-10.1v-2.4c0-3.8,0.7-7.2,2-10.1s3.3-5.1,5.8-6.6c2.5-1.5,5.4-2.3,8.7-2.3c3.3,0,6,0.6,8.4,1.8
	s4.1,2.8,5.4,4.9s2.1,4.5,2.3,7.3h-8.5c-0.2-2.4-0.8-4.1-2-5.3c-1.2-1.2-3-1.7-5.6-1.7c-2.7,0-4.7,1-5.9,2.9c-1.3,1.9-1.9,5-1.9,9.1
	v2.5c0,2.8,0.3,5,0.8,6.8c0.5,1.8,1.4,3.1,2.5,3.9c1.1,0.9,2.7,1.3,4.6,1.3c2.5,0,4.3-0.6,5.5-1.7c1.2-1.1,1.9-2.8,2.1-5.1h8.5
	C40.3,197.3,39.5,199.7,38.2,201.7z"/>
<path fill="#FFFFFF" d="M76.8,207.3v0.4h-9.2l-7.3-14.2h-6.2v14.2h-8.6v-39.2h15c3.1,0,5.7,0.5,7.9,1.4c2.2,0.9,3.9,2.2,5.1,4
	c1.2,1.8,1.8,3.9,1.8,6.5c0,2.8-0.6,5.1-1.8,6.8c-1.2,1.8-3,3.2-5.2,4.2L76.8,207.3z M54.2,186.7h6.4c2,0,3.6-0.5,4.6-1.5
	c1.1-1,1.6-2.4,1.6-4.1c0-1.8-0.5-3.2-1.6-4.2c-1-1-2.6-1.5-4.7-1.5h-6.4V186.7z"/>
<path fill="#FFFFFF" d="M123.6,207.7H115v-10.1l0.8-18.7l-10.4,28.8h-5.8l-10.4-28.8l0.8,18.7v10.1h-8.6v-39.2h11.2l9.8,28l9.8-28
	h11.2V207.7z"/>
<path fill="#FFFFFF" d="M175.5,193h-9.7v10.8H158V193h-9.8v-7.3h9.8v-10.4h7.8v10.4h9.7V193z"/>
<path fill="#FFFFFF" d="M238.6,185.6h14.2v7.3h-14.2"/>
<path fill="#FFFFFF" d="M230.7,200.9v6.8h-26.8v-39.2h26.8v6.8h-18.2v8.9H228v6.6h-15.5v10H230.7z"/>
<path fill="#FFFFFF" d="M291.5,201.7c-1.3,2.1-3.2,3.7-5.5,4.8c-2.4,1.1-5.1,1.7-8.3,1.7c-3.4,0-6.3-0.8-8.8-2.3
	c-2.5-1.5-4.4-3.7-5.7-6.6s-2-6.2-2-10.1v-2.4c0-3.8,0.7-7.2,2-10.1s3.3-5.1,5.8-6.6c2.5-1.5,5.4-2.3,8.7-2.3c3.3,0,6,0.6,8.4,1.8
	s4.1,2.8,5.4,4.9s2.1,4.5,2.3,7.3h-8.5c-0.2-2.4-0.8-4.1-2-5.3c-1.2-1.2-3-1.7-5.6-1.7c-2.7,0-4.7,1-5.9,2.9c-1.3,1.9-1.9,5-1.9,9.1
	v2.5c0,2.8,0.3,5,0.8,6.8c0.5,1.8,1.4,3.1,2.5,3.9c1.1,0.9,2.7,1.3,4.6,1.3c2.5,0,4.3-0.6,5.5-1.7c1.2-1.1,1.9-2.8,2.1-5.1h8.5
	C293.6,197.3,292.8,199.7,291.5,201.7z"/>
<path fill="#FFFFFF" d="M329.7,199.2c-1.4,2.9-3.4,5.1-6,6.7c-2.6,1.6-5.5,2.3-8.9,2.3s-6.3-0.8-8.9-2.3s-4.6-3.8-6-6.7
	c-1.4-2.9-2.2-6.3-2.2-10.2v-1.7c0-3.9,0.7-7.3,2.2-10.2c1.4-2.9,3.4-5.2,6-6.7c2.6-1.6,5.5-2.3,8.9-2.3c3.3,0,6.3,0.8,8.9,2.3
	s4.6,3.8,6,6.7c1.4,2.9,2.2,6.3,2.2,10.2v1.7C331.8,192.9,331.1,196.3,329.7,199.2z M321,178.1c-1.5-2.1-3.5-3.2-6.2-3.2
	c-2.7,0-4.8,1-6.2,3.2c-1.4,2.1-2.2,5.2-2.2,9.2v1.8c0,4,0.7,7,2.2,9.2s3.5,3.2,6.2,3.2c2.7,0,4.7-1.1,6.2-3.2
	c1.4-2.1,2.2-5.2,2.2-9.2v-1.8C323.1,183.2,322.4,180.2,321,178.1z"/>
<path fill="#FFFFFF" d="M379.6,207.7H371v-10.1l0.8-18.7l-10.4,28.8h-5.8l-10.4-28.8l0.8,18.7v10.1h-8.6v-39.2h11.2l9.8,28l9.8-28
	h11.2V207.7z"/>
<path fill="#FFFFFF" d="M428.6,207.7H420v-10.1l0.8-18.7l-10.4,28.8h-5.8l-10.4-28.8l0.8,18.7v10.1h-8.6v-39.2h11.2l9.8,28l9.8-28
	h11.2V207.7z"/>
<path fill="#FFFFFF" d="M462.3,200.9v6.8h-26.8v-39.2h26.8v6.8H444v8.9h15.5v6.6H444v10H462.3z"/>
<path fill="#FFFFFF" d="M498.1,207.3v0.4h-9.2l-7.3-14.2h-6.2v14.2h-8.6v-39.2h15c3.1,0,5.7,0.5,7.9,1.4c2.2,0.9,3.9,2.2,5.1,4
	s1.8,3.9,1.8,6.5c0,2.8-0.6,5.1-1.8,6.8s-3,3.2-5.2,4.2L498.1,207.3z M475.4,186.7h6.4c2,0,3.6-0.5,4.6-1.5c1.1-1,1.6-2.4,1.6-4.1
	c0-1.8-0.5-3.2-1.6-4.2c-1-1-2.6-1.5-4.7-1.5h-6.4V186.7z"/>
<path fill="#FFFFFF" d="M532,201.7c-1.3,2.1-3.2,3.7-5.5,4.8c-2.4,1.1-5.1,1.7-8.3,1.7c-3.4,0-6.3-0.8-8.8-2.3
	c-2.5-1.5-4.4-3.7-5.7-6.6s-2-6.2-2-10.1v-2.4c0-3.8,0.7-7.2,2-10.1s3.3-5.1,5.8-6.6c2.5-1.5,5.4-2.3,8.7-2.3c3.3,0,6,0.6,8.4,1.8
	s4.1,2.8,5.4,4.9s2.1,4.5,2.3,7.3h-8.5c-0.2-2.4-0.8-4.1-2-5.3c-1.2-1.2-3-1.7-5.6-1.7c-2.7,0-4.7,1-5.9,2.9s-1.9,5-1.9,9.1v2.5
	c0,2.8,0.3,5,0.8,6.8c0.5,1.8,1.4,3.1,2.5,3.9c1.1,0.9,2.7,1.3,4.6,1.3c2.5,0,4.3-0.6,5.5-1.7s1.9-2.8,2.1-5.1h8.5
	C534,197.3,533.3,199.7,532,201.7z"/>
<path fill="#FFFFFF" d="M566.2,200.9v6.8h-26.8v-39.2h26.8v6.8h-18.2v8.9h15.5v6.6h-15.5v10H566.2z"/>
<path fill="#FFFFFF" d="M618.5,193h-9.7v10.8H601V193h-9.8v-7.3h9.8v-10.4h7.8v10.4h9.7V193z"/>
<path fill="#FFFFFF" d="M669.2,200.9v6.8h-26.8v-39.2h26.8v6.8H651v8.9h15.5v6.6H651v10H669.2z"/>
<path fill="#FFFFFF" d="M705,207.3v0.4h-9.2l-7.3-14.2h-6.2v14.2h-8.6v-39.2h15c3.1,0,5.7,0.5,7.9,1.4c2.2,0.9,3.9,2.2,5.1,4
	s1.8,3.9,1.8,6.5c0,2.8-0.6,5.1-1.8,6.8s-3,3.2-5.2,4.2L705,207.3z M682.4,186.7h6.4c2,0,3.6-0.5,4.6-1.5c1.1-1,1.6-2.4,1.6-4.1
	c0-1.8-0.5-3.2-1.6-4.2c-1-1-2.6-1.5-4.7-1.5h-6.4V186.7z"/>
<path fill="#FFFFFF" d="M733.3,170.2c2.3,1.1,4,2.7,5.2,4.6c1.2,2,1.8,4.2,1.8,6.8c0,2.5-0.6,4.7-1.8,6.6c-1.2,1.9-2.9,3.3-5.2,4.4
	c-2.3,1-5,1.5-8,1.5h-7v13.6h-8.6v-39.2h15.6C728.4,168.5,731,169.1,733.3,170.2z M730.1,185.8c1.1-1,1.6-2.4,1.6-4.1
	c0-1.1-0.2-2.2-0.7-3.1s-1.2-1.7-2.1-2.3c-1-0.6-2.2-0.9-3.6-0.9h-7v11.9h7C727.5,187.3,729.1,186.8,730.1,185.8z"/>
<path fill="#FFFFFF" d="M416,56.2c-5.7-30.3-32.7-53.3-65.1-53.3c-36.6,0-66.2,29.3-66.2,65.4s29.7,65.4,66.2,65.4
	c9.7,0,19-2.1,27.3-5.8c8.3,11.2,21.7,18.4,36.8,18.4c25.2,0,45.6-20.2,45.6-45C460.7,76.7,440.8,56.7,416,56.2z M412.8,119.1
	c7.1,0,13.4-3.8,16.8-9.5h12.1l-0.9,2.3c-4.7,10.5-15.3,17.8-27.7,17.8c-14.6,0-26.9-10.3-29.7-24c-8.7,7.4-20.1,11.9-32.4,11.9
	c-27.6,0-50.1-22.2-50.1-49.4c0-27.2,22.5-49.4,50.1-49.4c21.5,0,39.9,13.4,47,32.3h-11.2c-6.5-13-20-22.1-35.7-22.1
	c-21.9,0-39.7,17.6-39.7,39.2s17.8,39.2,39.7,39.2c14.5,0,27.3-7.7,34.2-19.3h0.1C389.8,77.5,400.5,70,413,70
	c13,0,24.2,8.1,28.4,19.4l0.8,2l-11.9,0c-3.2-6.4-9.8-10.8-17.5-10.8c-10.8,0-19.5,8.6-19.5,19.2S402.1,119.1,412.8,119.1z"/>
<polyline fill="none" stroke="#FFFFFF" stroke-width="1.8644" stroke-miterlimit="10" stroke-dasharray="5.5933,5.5933" points="
	293.4,222 293.4,249.2 264.9,249.2 "/>
<polyline fill="none" stroke="#FFFFFF" stroke-width="1.8644" stroke-miterlimit="10" stroke-dasharray="5.5933,5.5933" points="
	50.4,222 50.4,249.2 78.8,249.2 "/>
<g>
	<path fill="#FFFFFF" d="M102.5,252.3c-0.7,1.5-1.6,2.6-2.9,3.4s-2.7,1.2-4.4,1.2c-1.6,0-3.1-0.4-4.4-1.2s-2.2-1.9-2.9-3.4
		c-0.7-1.5-1-3.2-1-5.1v-2.3c0-1.9,0.3-3.6,1-5.1c0.7-1.5,1.7-2.6,2.9-3.4c1.3-0.8,2.7-1.2,4.3-1.2c1.7,0,3.1,0.4,4.4,1.2
		c1.3,0.8,2.2,1.9,2.9,3.4c0.7,1.5,1,3.2,1,5.1v2.3C103.5,249.1,103.1,250.8,102.5,252.3z M100.9,240.6c-0.5-1.2-1.3-2.2-2.3-2.8
		s-2.2-1-3.5-1c-1.3,0-2.5,0.3-3.5,1s-1.7,1.6-2.3,2.8c-0.5,1.2-0.8,2.7-0.8,4.3v2.3c0,1.7,0.3,3.1,0.8,4.3c0.5,1.2,1.3,2.2,2.3,2.8
		c1,0.7,2.1,1,3.5,1c1.4,0,2.5-0.3,3.5-1s1.7-1.6,2.2-2.8c0.5-1.2,0.8-2.7,0.8-4.3v-2.3C101.7,243.2,101.4,241.8,100.9,240.6z"/>
	<path fill="#FFFFFF" d="M118.3,242c0.9,0.9,1.3,2.4,1.3,4.4v10.2h-1.8v-10.2c0-1.5-0.3-2.6-1-3.3c-0.6-0.6-1.6-1-2.8-1
		c-1.1,0-2.1,0.4-2.9,1.1s-1.4,1.6-1.8,2.6v10.8h-1.8v-15.7h1.7l0.1,2.6c0.6-0.9,1.3-1.6,2.2-2.2s1.9-0.8,3-0.8
		C116.2,240.6,117.4,241.1,118.3,242z"/>
	<path fill="#FFFFFF" d="M124.9,248.9v0.3c0,1.1,0.2,2.2,0.7,3.1c0.5,1,1.1,1.7,1.9,2.2s1.8,0.8,2.8,0.8c0.9,0,1.8-0.2,2.5-0.5
		c0.7-0.3,1.4-0.9,1.9-1.6l1.1,0.8c-0.6,0.8-1.3,1.5-2.3,2c-0.9,0.5-2.1,0.8-3.4,0.8c-1.4,0-2.6-0.3-3.7-1c-1.1-0.7-1.9-1.6-2.5-2.7
		s-0.9-2.5-0.9-4v-0.6c0-1.6,0.3-2.9,0.9-4.2c0.6-1.2,1.5-2.1,2.5-2.8c1-0.7,2.2-1,3.4-1c1.3,0,2.4,0.3,3.4,0.9
		c0.9,0.6,1.7,1.5,2.2,2.5s0.7,2.3,0.7,3.7v1.1H124.9z M127.6,242.8c-0.7,0.4-1.3,1-1.7,1.8s-0.7,1.7-0.9,2.8h9.5v-0.2
		c0-0.9-0.2-1.7-0.5-2.5c-0.3-0.8-0.9-1.4-1.5-1.9c-0.7-0.5-1.5-0.7-2.4-0.7C129.1,242.1,128.3,242.3,127.6,242.8z"/>
	<path fill="#FFFFFF" d="M158.6,236.3c1.1,0.5,1.9,1.3,2.4,2.2s0.8,2,0.8,3.3c0,1.3-0.3,2.4-0.8,3.3c-0.5,0.9-1.4,1.6-2.4,2.1
		c-1.1,0.5-2.4,0.7-3.9,0.7h-5.5v8.6h-1.8v-21.1h7.3C156.2,235.5,157.5,235.8,158.6,236.3z M158.7,245.2c0.9-0.9,1.3-2,1.3-3.4
		c0-0.9-0.2-1.7-0.6-2.4c-0.4-0.7-1-1.3-1.8-1.7c-0.8-0.4-1.8-0.6-3-0.6h-5.5v9.4h5.5C156.5,246.5,157.8,246.1,158.7,245.2z"/>
	<path fill="#FFFFFF" d="M165.7,256.6v-22.2h1.7v22.2H165.7z"/>
	<path fill="#FFFFFF" d="M183.8,255c0.1,0.6,0.2,1,0.4,1.4v0.2h-1.9c-0.2-0.5-0.3-1.2-0.4-2.2c-0.6,0.7-1.3,1.3-2.2,1.8
		s-2,0.7-3.1,0.7c-1,0-1.9-0.2-2.7-0.6c-0.8-0.4-1.4-0.9-1.8-1.6s-0.6-1.4-0.6-2.3c0-1,0.3-1.9,0.9-2.6c0.6-0.7,1.4-1.3,2.5-1.7
		c1.1-0.4,2.4-0.6,3.8-0.6h3.2v-1.8c0-1.1-0.4-2-1.1-2.7c-0.7-0.6-1.7-1-3-1c-0.8,0-1.5,0.1-2.2,0.4c-0.7,0.3-1.2,0.7-1.5,1.1
		c-0.4,0.5-0.5,1-0.5,1.6l-1.8,0c0-0.8,0.3-1.5,0.8-2.2c0.5-0.7,1.2-1.3,2.2-1.7c0.9-0.4,2-0.7,3.1-0.7c1.1,0,2.2,0.2,3,0.6
		c0.9,0.4,1.5,1,2,1.7c0.5,0.8,0.7,1.7,0.7,2.8v7.6C183.6,253.9,183.7,254.4,183.8,255z M179.9,254.5c0.9-0.6,1.6-1.3,2-2.2v-3.5h-3
		c-1.2,0-2.2,0.1-3.1,0.4c-0.9,0.3-1.5,0.7-2,1.2s-0.7,1.1-0.7,1.9c0,0.6,0.1,1.1,0.4,1.5c0.3,0.5,0.7,0.8,1.2,1.1
		c0.5,0.3,1.2,0.4,1.9,0.4C177.9,255.3,179,255,179.9,254.5z"/>
	<path fill="#FFFFFF" d="M194.6,256.6c-0.2,0.1-0.5,0.1-0.8,0.2c-0.3,0-0.7,0.1-1,0.1c-1.1,0-1.9-0.3-2.6-0.9
		c-0.6-0.6-0.9-1.7-0.9-3.2v-10.4h-2.9v-1.4h2.9v-4h1.8v4h3.3v1.4h-3.3v10.4c0,1,0.2,1.7,0.6,2c0.4,0.4,0.9,0.5,1.5,0.5
		c0.4,0,0.8-0.1,1.4-0.2L194.6,256.6z"/>
	<path fill="#FFFFFF" d="M201.8,236.5c-0.5,0.6-0.8,1.4-0.8,2.5v2h3.8v1.4H201v14.2h-1.7v-14.2h-2.6v-1.4h2.6v-2
		c0-1.6,0.4-2.8,1.2-3.6c0.8-0.9,2-1.3,3.4-1.3c0.7,0,1.3,0.1,1.9,0.2l-0.1,1.4c-0.5-0.1-1-0.2-1.6-0.2
		C203.1,235.6,202.4,235.9,201.8,236.5z"/>
	<path fill="#FFFFFF" d="M207.9,244.5c0.6-1.2,1.4-2.1,2.5-2.8c1.1-0.7,2.3-1,3.7-1c1.4,0,2.6,0.3,3.7,1c1.1,0.7,1.9,1.6,2.5,2.8
		c0.6,1.2,0.9,2.6,0.9,4.1v0.5c0,1.5-0.3,2.9-0.9,4.1c-0.6,1.2-1.4,2.1-2.5,2.8c-1.1,0.7-2.3,1-3.7,1s-2.6-0.3-3.7-1
		c-1.1-0.7-1.9-1.6-2.5-2.8c-0.6-1.2-0.9-2.6-0.9-4.1v-0.5C207,247,207.3,245.7,207.9,244.5z M209.4,252.2c0.4,1,1,1.8,1.8,2.3
		c0.8,0.6,1.8,0.9,2.9,0.9c1.1,0,2.1-0.3,2.9-0.9c0.8-0.6,1.4-1.4,1.8-2.3c0.4-1,0.6-2,0.6-3.2v-0.5c0-1.1-0.2-2.2-0.6-3.2
		c-0.4-1-1-1.8-1.8-2.3c-0.8-0.6-1.8-0.9-2.9-0.9s-2.1,0.3-2.9,0.9c-0.8,0.6-1.4,1.4-1.8,2.3c-0.4,1-0.6,2-0.6,3.2v0.5
		C208.7,250.1,208.9,251.2,209.4,252.2z"/>
	<path fill="#FFFFFF" d="M231.6,240.7c0.2,0,0.4,0.1,0.5,0.1l-0.1,1.6c-0.4-0.1-0.8-0.1-1.2-0.1c-1.1,0-2.1,0.3-2.8,0.9
		c-0.7,0.6-1.3,1.5-1.6,2.6v10.8h-1.8v-15.7h1.7l0,2.4c0.4-0.9,1-1.5,1.8-2c0.7-0.5,1.6-0.7,2.7-0.7
		C231.2,240.6,231.4,240.7,231.6,240.7z"/>
	<path fill="#FFFFFF" d="M255.7,242c0.9,0.9,1.3,2.4,1.3,4.4v10.2h-1.7v-10.2c0-1.6-0.3-2.6-1-3.3c-0.7-0.6-1.6-1-2.8-1
		c-0.9,0-1.8,0.2-2.4,0.6c-0.7,0.4-1.2,0.9-1.6,1.6s-0.6,1.3-0.7,1.9v10.4H245v-10.4c0-1.5-0.3-2.5-1-3.2c-0.7-0.6-1.6-0.9-2.9-0.9
		c-1.2,0-2.2,0.3-3,1c-0.8,0.7-1.3,1.6-1.6,2.6v10.8h-1.8v-15.7h1.7l0,2.5c0.5-0.9,1.3-1.6,2.1-2.1c0.9-0.5,1.9-0.8,3-0.8
		c1.2,0,2.2,0.2,3,0.7c0.8,0.5,1.4,1.3,1.7,2.3c0.5-0.9,1.3-1.7,2.2-2.2c0.9-0.5,2-0.8,3.2-0.8C253.6,240.6,254.9,241.1,255.7,242z"
		/>
</g>
<g>
	<path fill="#FFFFFF" d="M621.8,138.2h2.1l-7.7,13.1v7.9h-1.8v-7.9l-7.7-13.1h2.1l6.5,11.5L621.8,138.2z"/>
	<path fill="#FFFFFF" d="M625.6,147.2c0.6-1.2,1.4-2.1,2.5-2.8s2.3-1,3.7-1c1.4,0,2.6,0.3,3.7,1c1.1,0.7,1.9,1.6,2.5,2.8
		c0.6,1.2,0.9,2.6,0.9,4.1v0.5c0,1.5-0.3,2.9-0.9,4.1c-0.6,1.2-1.4,2.1-2.5,2.8c-1.1,0.7-2.3,1-3.7,1c-1.4,0-2.6-0.3-3.7-1
		c-1.1-0.7-1.9-1.6-2.5-2.8c-0.6-1.2-0.9-2.6-0.9-4.1v-0.5C624.7,149.7,625,148.4,625.6,147.2z M627.1,154.9c0.4,1,1,1.8,1.8,2.3
		c0.8,0.6,1.8,0.9,2.9,0.9c1.1,0,2.1-0.3,2.9-0.9c0.8-0.6,1.4-1.4,1.8-2.3c0.4-1,0.6-2,0.6-3.2v-0.5c0-1.1-0.2-2.2-0.6-3.2
		c-0.4-1-1-1.8-1.8-2.3s-1.8-0.9-2.9-0.9c-1.1,0-2.1,0.3-2.9,0.9s-1.4,1.4-1.8,2.3c-0.4,1-0.6,2-0.6,3.2v0.5
		C626.5,152.9,626.7,153.9,627.1,154.9z"/>
	<path fill="#FFFFFF" d="M654.5,143.6v15.7h-1.7l0-2c-0.5,0.7-1.2,1.3-2,1.7s-1.8,0.6-3,0.6c-1.6,0-2.9-0.5-3.8-1.4
		s-1.4-2.5-1.4-4.5v-10h1.8v10c0,1.6,0.3,2.7,1,3.4s1.6,1,2.7,1c1.3,0,2.4-0.3,3.2-0.8s1.3-1.3,1.6-2.3v-11.4H654.5z"/>
	<path fill="#FFFFFF" d="M665.9,143.4c0.2,0,0.4,0.1,0.5,0.1l-0.1,1.6c-0.5-0.1-0.8-0.1-1.2-0.1c-1.1,0-2.1,0.3-2.8,0.9
		s-1.3,1.5-1.6,2.6v10.8H659v-15.7h1.7l0,2.4c0.4-0.9,1-1.5,1.8-2c0.7-0.5,1.6-0.7,2.7-0.7C665.4,143.3,665.7,143.4,665.9,143.4z"/>
</g>
<path fill="#FFFFFF" d="M625.9,173.8l-0.5-0.8c0.2-0.1,4.4-3.1,3.7-9.9c-0.1-0.5-0.1-0.8-0.1-0.8l1-0.1c0,0.2,0.1,0.5,0.1,0.7
	c0.3,1.9,1.6,7.1,5.6,8.8l-0.4,0.9c-2.8-1.2-4.3-3.8-5.2-6C629.3,171.4,626.1,173.6,625.9,173.8z"/>
<g>
	<path fill="#FFFFFF" d="M385.5,298.5c0,0.5-0.2,0.9-0.5,1.3l-9.4,9.4c-0.4,0.4-0.8,0.6-1.3,0.6c-0.5,0-1-0.2-1.3-0.6l-9.4-9.4
		c-0.4-0.3-0.6-0.8-0.6-1.3c0-0.5,0.2-1,0.6-1.3l1.1-1.1c0.4-0.4,0.8-0.5,1.3-0.5c0.5,0,0.9,0.2,1.3,0.5l7,7l7-7
		c0.4-0.4,0.8-0.5,1.3-0.5c0.5,0,0.9,0.2,1.3,0.5l1.1,1.1C385.3,297.6,385.5,298,385.5,298.5z"/>
</g>
</svg>
