<?xml version="1.0" encoding="utf-8"?>
<!-- Generator: Adobe Illustrator 21.1.0, SVG Export Plug-In . SVG Version: 6.00 Build 0)  -->
<svg version="1.1" xmlns="http://www.w3.org/2000/svg" xmlns:xlink="http://www.w3.org/1999/xlink" x="0px" y="0px"
	 viewBox="0 0 2400 1080" style="enable-background:new 0 0 2400 1080;" xml:space="preserve">
<style type="text/css">
	.st0{fill:#232957;}
	.st1{fill:#FFFFFF;}
</style>
<g id="Layer_1">
	<g>
		<circle class="st0" cx="2130.7" cy="426.5" r="156.2"/>
	</g>
	<g>
		<path class="st1" d="M1818.3,579.5c-85.8,0-155.7-69.8-155.7-155.7s69.8-155.7,155.7-155.7S1974,338,1974,423.9
			S1904.2,579.5,1818.3,579.5z"/>
		<path class="st0" d="M1818.3,268.7c41.4,0,80.4,16.1,109.7,45.4c29.3,29.3,45.4,68.3,45.4,109.7s-16.1,80.4-45.4,109.7
			c-29.3,29.3-68.3,45.4-109.7,45.4s-80.4-16.1-109.7-45.4c-29.3-29.3-45.4-68.3-45.4-109.7s16.1-80.4,45.4-109.7
			C1737.9,284.8,1776.9,268.7,1818.3,268.7 M1818.3,267.7c-86.2,0-156.2,69.9-156.2,156.2S1732.1,580,1818.3,580
			s156.2-69.9,156.2-156.2S1904.6,267.7,1818.3,267.7L1818.3,267.7z"/>
	</g>
	<g>
		<circle class="st0" cx="1505.7" cy="427.5" r="156.2"/>
	</g>
	<g>
		<path class="st1" d="M1193.3,580.5c-85.8,0-155.7-69.8-155.7-155.7s69.8-155.7,155.7-155.7S1349,339,1349,424.9
			S1279.2,580.5,1193.3,580.5z"/>
		<path class="st0" d="M1193.3,269.7c41.4,0,80.4,16.1,109.7,45.4c29.3,29.3,45.4,68.3,45.4,109.7s-16.1,80.4-45.4,109.7
			c-29.3,29.3-68.3,45.4-109.7,45.4s-80.4-16.1-109.7-45.4c-29.3-29.3-45.4-68.3-45.4-109.7s16.1-80.4,45.4-109.7
			C1112.9,285.8,1151.9,269.7,1193.3,269.7 M1193.3,268.7c-86.2,0-156.2,69.9-156.2,156.2S1107.1,581,1193.3,581
			s156.2-69.9,156.2-156.2S1279.6,268.7,1193.3,268.7L1193.3,268.7z"/>
	</g>
	<g>
		<circle class="st0" cx="881.3" cy="427.2" r="156.2"/>
	</g>
	<g>
		<path class="st1" d="M569,582.8c-85.8,0-155.7-69.8-155.7-155.7S483.2,271.5,569,271.5s155.7,69.8,155.7,155.7
			S654.8,582.8,569,582.8z"/>
		<path class="st0" d="M569,272c41.4,0,80.4,16.1,109.7,45.4c29.3,29.3,45.4,68.3,45.4,109.7s-16.1,80.4-45.4,109.7
			c-29.3,29.3-68.3,45.4-109.7,45.4c-41.4,0-80.4-16.1-109.7-45.4c-29.3-29.3-45.4-68.3-45.4-109.7s16.1-80.4,45.4-109.7
			C488.6,288.1,527.6,272,569,272 M569,271c-86.2,0-156.2,69.9-156.2,156.2S482.8,583.3,569,583.3s156.2-69.9,156.2-156.2
			S655.2,271,569,271L569,271z"/>
	</g>
	<g>
		<circle class="st0" cx="256.7" cy="427.2" r="156.2"/>
	</g>
	<g>
		<circle cx="723.7" cy="696.5" r="156.2"/>
	</g>
	<g>
		<circle cx="411.3" cy="695.9" r="156.2"/>
	</g>
	<g>
		<circle cx="1348.7" cy="696.5" r="156.2"/>
	</g>
	<g>
		<circle cx="1036.3" cy="695.9" r="156.2"/>
	</g>
	<g>
		<circle cx="1973.7" cy="696.5" r="156.2"/>
	</g>
	<g>
		<circle cx="1661.3" cy="695.9" r="156.2"/>
	</g>
</g>
<g id="Layer_2">
	<g>
		<path class="st1" d="M267.4,400.1c-0.9,0-1.5-0.4-1.8-1.6c-0.9-3.6-2.4-5.4-4.5-5.4c-1.5,0-2.3,1.2-2.3,2.7c0,4.8,7,10.2,16,16.3
			c9.8,6.6,17.1,17.4,17.1,28.5c0,20.1-12,36.1-31.6,36.1c-22.8,0-33.3-16.5-33.3-40.5c0-0.7,0.6-1.5,1.8-1.5l20.7-1.1
			c1,0,1.6,0.6,1.8,2c0.6,6,3.1,12.4,6.7,12.4c2.1,0,3.5-1.3,3.5-4.8c0-3.6-8.4-10.2-18.4-18.3c-10-8.1-15-19.3-15-29.5
			c0-15.3,11.4-31.9,31.5-31.9s32.5,15.8,32.5,33.6c0,1-0.6,1.9-1.8,1.9L267.4,400.1z"/>
	</g>
	<g>
		<path class="st0" d="M573.2,364.7c0-0.8,0.8-1.5,1.6-1.5h25.3c1,0,1.8,0.9,1.8,1.9v79.9c0,15.9-11.5,30.6-31.3,30.6
			c-5.1,0-28.6-4.5-28.6-40c0-1,0.6-1.5,1.5-1.6l21-1c0.9,0,1.6,0.6,1.8,1.8c0.5,6,2.1,10,4.8,10c1.4,0,2.1-0.8,2.1-3.6V364.7z"/>
	</g>
	<g>
		<path class="st1" d="M850.4,407.9c0-27.3,12.8-43.2,33.3-43.2c21.9,0,33.4,18.6,33.4,40.2c0,4,0,4.5-1.4,4.5l-27.7,1.1
			c-1.3,0-2.7-1.2-2.7-3V398c0-2.1-1.2-2.8-2.4-2.8s-2.4,1-2.4,2.7v46.6c0,1.5,1,2.5,2.4,2.5c1.5,0,2.4-1.2,2.4-2.7v-15.1
			c0-0.9,0.6-2.3,1.8-2.1l28.3,1c0.8,0,1.2,0.6,1.2,1.2c0,36.1-14.8,48.6-33.7,48.6c-20.8,0-32.5-18.7-32.5-40.2V407.9z"/>
	</g>
	<g>
		<path class="st0" d="M1203.8,401.3c-0.9,0-1.5-0.4-1.8-1.6c-0.9-3.6-2.4-5.4-4.5-5.4c-1.5,0-2.3,1.2-2.3,2.7c0,4.8,7,10.2,16,16.3
			c9.7,6.6,17.1,17.4,17.1,28.5c0,20.1-12,36.1-31.6,36.1c-22.8,0-33.3-16.5-33.3-40.5c0-0.8,0.6-1.5,1.8-1.5l20.7-1.1
			c1.1,0,1.7,0.6,1.8,2c0.6,6,3.2,12.4,6.8,12.4c2.1,0,3.5-1.3,3.5-4.8c0-3.6-8.4-10.2-18.4-18.3s-15-19.3-15-29.5
			c0-15.3,11.4-31.9,31.5-31.9c20.1,0,32.5,15.7,32.5,33.6c0,1.1-0.6,2-1.8,2L1203.8,401.3z"/>
	</g>
	<g>
		<path class="st1" d="M1487.7,364.9c1.1,0,2.1,0.8,2.3,1.9l3.3,35.5c0.1,1.7,0.6,2.8,1.2,2.8s1.2-1.2,1.3-2.8l3.6-35.5
			c0.3-1.2,0.7-1.9,1.8-1.9h15.3c0.8,0,1.7,0.8,1.8,1.6l3.9,35.8c0.1,1.7,0.6,2.8,1.2,2.8s1.2-1.2,1.3-2.8l3-35.7
			c0.2-1,0.8-1.8,1.7-1.8h24.3c1.5,0,1.9,0.9,1.8,2.1l-14,108.1c-0.1,1.5-1,2.3-1.9,2.3h-21.9c-0.9,0-1.6-0.8-1.8-1.7l-5.7-36.3
			c-0.2-1.4-0.6-2.4-1.2-2.4c-0.6,0-1,1.2-1.2,2.5l-5.3,36c-0.3,1-0.8,1.8-1.7,1.8h-22.2c-1,0-2-0.9-2.1-2l-14.4-108.6
			c-0.2-1.3,0.6-1.9,1.6-1.9H1487.7z"/>
	</g>
	<g>
		<path class="st0" d="M1793.3,364.7c0-0.9,0.9-1.9,2-1.9h53.2c0.9,0,1.5,0.8,1.5,1.6v27c0,0.9-0.8,1.5-1.6,1.5h-25
			c-0.6,0-1.1,0.5-1.1,1v8.4c0,0.6,0.6,1.1,1.1,1.1h11.8c0.6,0,1,0.4,1,1v27.3c0,0.8-0.6,1.3-1.2,1.3h-12.1c-0.6,0-1,0.5-1,1.2v8.8
			c0,0.6,0.4,1,0.9,1h25.9c1,0,1.6,0.8,1.6,1.5v27.9c0,0.9-0.7,1.7-1.6,1.7h-53.7c-0.9,0-1.6-0.9-1.6-2V364.7z"/>
	</g>
	<g>
		<path class="st1" d="M2103.7,364.8c0-1,0.6-1.8,1.6-1.8h27.9c19.5,0,30.6,14.5,30.6,27c0,9-0.2,22.8-15.3,27.4v0.3
			c9.5,3.5,15.8,13.5,15.8,25.2c0,7.6-0.2,32.5-31.2,32.5h-27.9c-1,0-1.5-0.8-1.5-1.7V364.8z M2130.6,405.3c0,0.6,0.5,1,1,1
			c2.1,0,4.4-1.3,4.4-4.3v-12.9c0-2.7-2.6-3.9-4.4-3.9c-0.6,0-1,0.3-1,0.9V405.3z M2130.6,451.9c0,0.6,0.3,1,1,1
			c2.4,0,4.5-1.8,4.5-4.3v-15.8c0-2.5-2.3-4-4.6-4c-0.6,0-0.9,0.5-0.9,1.2V451.9z"/>
	</g>
	<path class="st1" d="M383.5,751.9c-1.2,0-1.8-0.8-1.8-1.8V641.6c0-1.2,0.8-2.3,1.9-2.3h26.8c23.8,0,37.9,15.1,37.9,42.4v27.9
		c0,24.3-13.6,42.1-36.9,42.1H383.5z M418.3,673.1c0-1.5-0.5-2.7-1.4-3.5c-0.6-0.5-1.8-0.9-2.5-0.9c-0.6,0-0.9,0.4-0.9,1.3v49.8
		c0,0.9,0.3,1.2,0.9,1.2c0.9,0,3.9,0,3.9-4.3V673.1z"/>
	<path class="st1" d="M699.6,640.3c0-0.9,0.9-2,2-2h53.2c0.9,0,1.5,0.8,1.5,1.6v27c0,0.9-0.8,1.5-1.6,1.5h-25c-0.6,0-1,0.4-1,1v8.4
		c0,0.6,0.6,1,1,1h11.8c0.6,0,1,0.5,1,1v27.3c0,0.8-0.6,1.3-1.2,1.3h-12.2c-0.6,0-1,0.5-1,1.2v8.8c0,0.6,0.5,1,0.9,1h25.9
		c1.1,0,1.7,0.8,1.7,1.5v27.9c0,0.9-0.8,1.6-1.7,1.6h-53.7c-0.9,0-1.7-0.9-1.7-1.9V640.3z"/>
	<path class="st1" d="M1047,674.7c-0.9,0-1.5-0.5-1.8-1.6c-0.9-3.6-2.4-5.4-4.5-5.4c-1.5,0-2.3,1.2-2.3,2.7c0,4.8,7,10.2,16,16.3
		c9.8,6.6,17.1,17.4,17.1,28.5c0,20.1-12,36.1-31.6,36.1c-22.8,0-33.3-16.5-33.3-40.5c0-0.8,0.6-1.5,1.8-1.5l20.7-1
		c1,0,1.6,0.6,1.8,1.9c0.6,6,3.1,12.5,6.8,12.5c2.1,0,3.4-1.4,3.4-4.8c0-3.6-8.4-10.2-18.4-18.3c-10-8.1-15-19.3-15-29.5
		c0-15.3,11.4-31.9,31.5-31.9c20.1,0,32.5,15.8,32.5,33.6c0,1-0.6,2-1.8,2L1047,674.7z"/>
	<path class="st1" d="M1338.8,750.9c-1.1,0-2-1-2-2.3V639.9c0-0.8,0.6-1.5,1.3-1.5h25.6c1,0,1.8,0.6,1.8,1.5v109
		c0,0.9-0.8,1.9-1.8,1.9H1338.8z"/>
	<path class="st1" d="M1664.5,697.7c0-1.6,1.7-2.1,2.5-2.1h30.4c1,0,1.9,0.9,1.9,1.8v17.2c0,0.6-0.1,1.2-0.6,1.2h-2.5
		c-0.9,0-1,0.8-1,1.8c0,14.5-8.7,34.6-31.8,34.6c-22,0-33.7-15.6-33.7-48.9v-17.5c0-27.9,9.2-46.8,34.3-46.8c5.8,0,31.2,0,31.2,42
		c0,1.1-0.5,2-1.5,2l-27.1,1.2c-1,0-2.1-1.1-2.1-2.6v-8.5c0-1.3-1.2-1.7-2.4-1.7c-1.4,0-2.4,1.1-2.4,3.5v41.2c0,4.6,1.5,6.6,3.5,6.6
		c1.6,0,3.3-0.9,3.3-4.5V716c0-0.5-0.2-0.9-0.6-0.9h-0.8c-0.3,0-0.6-0.3-0.6-0.9V697.7z"/>
	<path class="st1" d="M1944.3,640.3c0-1,0.8-2,1.6-2h25.3c1,0,1.8,0.6,2.1,1.8l9,33.7c0.3,1.2,0.8,1.8,1,1.8c0.5,0,0.9-0.6,0.9-1.9
		v-33.4c0-1,0.8-2,1.8-2h22.5c1.2,0,1.9,1,1.9,2.1v108.4c0,1-0.6,1.9-1.6,1.9h-28c-0.6,0-1.5-0.6-1.7-1.5l-6.6-27
		c-0.3-1.5-0.9-2.1-1.3-2.1s-0.8,0.6-0.8,2.1v26.5c0,1-0.9,1.9-2,1.9h-22.8c-0.9,0-1.5-0.9-1.5-2.1V640.3z"/>
</g>
</svg>
